<?xml version="1.0" encoding="UTF-8" standalone="no"?><!DOCTYPE svg PUBLIC "-//W3C//DTD SVG 1.1//EN" "http://www.w3.org/Graphics/SVG/1.1/DTD/svg11.dtd"><svg width="100%" height="100%" viewBox="0 0 499 498" version="1.1" xmlns="http://www.w3.org/2000/svg" xmlns:xlink="http://www.w3.org/1999/xlink" xml:space="preserve" xmlns:serif="http://www.serif.com/" style="fill-rule:evenodd;clip-rule:evenodd;stroke-linejoin:round;stroke-miterlimit:1.41421;"><path id="alien" d="M0,101l50.097,0l0,-53.107l51.903,0l0,-47.893l295,0l0,47.893l51.903,0l0,52.75l49.291,0l0,150l-48.194,0l0,247l-52,0l0,-247l-48,0l0,247l-52,0l0,-247l-98,0l0,247l-52,0l0,-247.143l-44.194,0l0,0.5l-0.806,0l0,246.643l-52,0l0,-246.643l-51,0l0,-150Zm300.097,49l0,45.143l94.29,0l0,-45.143l-94.29,0Zm-196.291,0l0,45l92.484,0l0,-45l-92.484,0Z" style="fill:#232729;"/></svg>